<svg width="54" height="54" viewBox="0 0 54 54" fill="none" xmlns="http://www.w3.org/2000/svg">
    <path
        d="M54 27C54 41.9117 41.9117 54 27 54C12.0883 54 0 41.9117 0 27C0 12.0883 12.0883 0 27 0C41.9117 0 54 12.0883 54 27ZM3.23987 27C3.23987 40.1224 13.8776 50.7601 27 50.7601C40.1224 50.7601 50.7601 40.1224 50.7601 27C50.7601 13.8776 40.1224 3.23987 27 3.23987C13.8776 3.23987 3.23987 13.8776 3.23987 27Z"
        fill="#e6e6e6" />
    <path
        d="M0.874994 33.8179C-0.229387 29.5861 -0.289247 25.1494 0.700563 20.8894C1.69037 16.6293 3.70022 12.6735 6.55724 9.36216L9.01027 11.4786C6.49608 14.3926 4.72741 17.8738 3.85637 21.6226C2.98533 25.3715 3.03801 29.2758 4.00987 32.9998L0.874994 33.8179Z"
        fill="#EF4444" />
</svg>