<svg width="80" height="84" viewBox="0 0 80 84" fill="none" xmlns="http://www.w3.org/2000/svg">
<path d="M12.2258 16.9243C13.0076 16.6687 13.4354 15.8241 13.1813 15.0378C12.9272 14.2515 12.0874 13.8212 11.3057 14.0768C10.5239 14.3324 10.0961 15.177 10.3502 15.9633C10.6043 16.7496 11.4441 17.1799 12.2258 16.9243Z" fill="#A6AFC0"/>
<path d="M15.0409 11.8838C15.5725 11.7101 15.8634 11.1357 15.6906 10.601C15.5178 10.0663 14.9468 9.77374 14.4152 9.94753C13.8836 10.1213 13.5927 10.6957 13.7655 11.2304C13.9383 11.7651 14.5093 12.0576 15.0409 11.8838Z" fill="#A6AFC0"/>
<path d="M64.2666 17.1781C65.189 16.3303 65.2534 14.8909 64.4105 13.9631C63.5676 13.0353 62.1365 12.9705 61.2141 13.8184C60.2917 14.6662 60.2273 16.1056 61.0702 17.0334C61.9131 17.9611 63.3442 18.0259 64.2666 17.1781Z" fill="#A6AFC0"/>
<path d="M71.4936 13.029C71.882 12.672 71.9091 12.0659 71.5542 11.6753C71.1993 11.2847 70.5967 11.2574 70.2083 11.6144C69.82 11.9714 69.7928 12.5774 70.1478 12.9681C70.5027 13.3587 71.1052 13.386 71.4936 13.029Z" fill="#A6AFC0"/>
<path d="M14.8405 66.2238C15.2289 65.8668 15.256 65.2608 14.9011 64.8701C14.5462 64.4795 13.9436 64.4522 13.5553 64.8092C13.1669 65.1662 13.1398 65.7722 13.4947 66.1629C13.8496 66.5535 14.4522 66.5808 14.8405 66.2238Z" fill="#EAEEF9"/>
<path d="M38.8611 69.3902C55.2035 69.3902 68.4516 56.065 68.4516 39.6275C68.4516 23.19 55.2035 9.86475 38.8611 9.86475C22.5187 9.86475 9.27051 23.19 9.27051 39.6275C9.27051 56.065 22.5187 69.3902 38.8611 69.3902Z" fill="#DFE6F2"/>
<g filter="url(#filter0_d_548_7247)">
<path d="M20.2103 35.6993L16.3403 19.1711C16.0426 17.9135 16.8166 16.7158 18.0073 16.4164L43.5493 10.3081L50.7832 15.2486L55.0029 22.5005L60.2796 29.2766L62.542 38.3641L67.067 56.5392C67.3646 57.7967 66.5906 58.9944 65.3999 59.2939L30.1532 67.6777C28.9029 67.9772 27.7121 67.1987 27.4144 66.001L19.9126 34.4417" fill="#A6AFC0"/>
</g>
<g filter="url(#filter1_d_548_7247)">
<path d="M61.2889 62.7077C61.2889 63.9652 60.2768 64.9833 59.0265 64.9833H22.8272C21.5768 64.9833 20.5647 63.9652 20.5647 62.7077V14.5603C20.5647 13.3027 21.5768 12.2847 22.8272 12.2847H49.0836L60.8722 25.2797L61.1103 47.0777L61.2889 62.7077Z" fill="#FDFEFF"/>
</g>
<path d="M54.6193 51.2096H32.8878C32.5306 51.2096 32.2329 50.9101 32.2329 50.5508C32.2329 50.1915 32.5306 49.8921 32.8878 49.8921H54.6193C54.9766 49.8921 55.2743 50.1915 55.2743 50.5508C55.2147 50.9101 54.9766 51.2096 54.6193 51.2096Z" fill="#D6DCE8"/>
<path d="M30.2083 51.2096H26.3978C26.0406 51.2096 25.7429 50.9101 25.7429 50.5508C25.7429 50.1915 26.0406 49.8921 26.3978 49.8921H30.2083C30.5655 49.8921 30.8632 50.1915 30.8632 50.5508C30.8632 50.9101 30.5655 51.2096 30.2083 51.2096Z" fill="#D6DCE8"/>
<path d="M54.5613 45.2813H44.8566C44.4994 45.2813 44.2017 44.9819 44.2017 44.6226C44.2017 44.2633 44.4994 43.9639 44.8566 43.9639H54.5613C54.9186 43.9639 55.2163 44.2633 55.2163 44.6226C55.1567 45.0418 54.9186 45.2813 54.5613 45.2813Z" fill="#D6DCE8"/>
<path d="M40.7467 45.2813H26.5766C26.2193 45.2813 25.9216 44.9819 25.9216 44.6226C25.9216 44.2633 26.2193 43.9639 26.5766 43.9639H40.7467C41.1039 43.9639 41.4016 44.2633 41.4016 44.6226C41.4016 45.0418 41.1039 45.2813 40.7467 45.2813Z" fill="#D6DCE8"/>
<path d="M54.7401 39.4127H50.9892C50.6319 39.4127 50.3342 39.1133 50.3342 38.7539C50.3342 38.3946 50.6319 38.0952 50.9892 38.0952H54.7401C55.0973 38.0952 55.395 38.3946 55.395 38.7539C55.395 39.1133 55.0973 39.4127 54.7401 39.4127Z" fill="#D6DCE8"/>
<path d="M47.4746 39.4127H26.7553C26.398 39.4127 26.1003 39.1133 26.1003 38.7539C26.1003 38.3946 26.398 38.0952 26.7553 38.0952H47.4746C47.8318 38.0952 48.1295 38.3946 48.1295 38.7539C48.1295 39.1133 47.8318 39.4127 47.4746 39.4127Z" fill="#D6DCE8"/>
<path d="M38.1899 57.6773H36.88C36.5228 57.6773 36.2251 57.3779 36.2251 57.0186C36.2251 56.6593 36.5228 56.3599 36.88 56.3599H38.1899C38.5471 56.3599 38.8448 56.6593 38.8448 57.0186C38.7852 57.3779 38.4876 57.6773 38.1899 57.6773Z" fill="#D6DCE8"/>
<path d="M34.4953 57.6773H26.7553C26.398 57.6773 26.1003 57.3779 26.1003 57.0186C26.1003 56.6593 26.398 56.3599 26.7553 56.3599H34.4357C34.7929 56.3599 35.0906 56.6593 35.0906 57.0186C35.1502 57.3779 34.8525 57.6773 34.4953 57.6773Z" fill="#D6DCE8"/>
<path d="M54.9195 33.5435H41.5829C41.2257 33.5435 40.928 33.2441 40.928 32.8848C40.928 32.5255 41.2257 32.2261 41.5829 32.2261H54.9195C55.2767 32.2261 55.5744 32.5255 55.5744 32.8848C55.5744 33.2441 55.2767 33.5435 54.9195 33.5435Z" fill="#D6DCE8"/>
<path d="M37.2936 33.5435H26.934C26.5767 33.5435 26.2791 33.2441 26.2791 32.8848C26.2791 32.5255 26.5767 32.2261 26.934 32.2261H37.2341C37.5913 32.2261 37.889 32.5255 37.889 32.8848C37.889 33.2441 37.6509 33.5435 37.2936 33.5435Z" fill="#D6DCE8"/>
<path d="M44.5586 20.2495H27.1734C26.6971 20.2495 26.3398 19.8902 26.3398 19.4111C26.3398 18.9321 26.6971 18.5728 27.1734 18.5728H44.5586C45.0349 18.5728 45.3921 18.9321 45.3921 19.4111C45.3921 19.8303 44.9753 20.2495 44.5586 20.2495Z" fill="#D6DCE8"/>
<path d="M33.7821 24.4414H27.1734C26.6971 24.4414 26.3398 24.0821 26.3398 23.603C26.3398 23.124 26.6971 22.7646 27.1734 22.7646H33.8417C34.318 22.7646 34.6752 23.124 34.6752 23.603C34.6157 24.0222 34.2584 24.4414 33.7821 24.4414Z" fill="#D6DCE8"/>
<path d="M49.0833 12.2847V22.5849C49.0833 24.0221 50.3336 25.2198 51.7625 25.2198H60.8718" fill="#A6AFC0"/>
<defs>
<filter id="filter0_d_548_7247" x="5.57" y="4.95492" width="72.2672" height="78.8468" filterUnits="userSpaceOnUse" color-interpolation-filters="sRGB">
<feFlood flood-opacity="0" result="BackgroundImageFix"/>
<feColorMatrix in="SourceAlpha" type="matrix" values="0 0 0 0 0 0 0 0 0 0 0 0 0 0 0 0 0 0 127 0" result="hardAlpha"/>
<feOffset dy="5.35318"/>
<feGaussianBlur stdDeviation="5.35318"/>
<feColorMatrix type="matrix" values="0 0 0 0 0.397708 0 0 0 0 0.47749 0 0 0 0 0.575 0 0 0 0.27 0"/>
<feBlend mode="normal" in2="BackgroundImageFix" result="effect1_dropShadow_548_7247"/>
<feBlend mode="normal" in="SourceGraphic" in2="effect1_dropShadow_548_7247" result="shape"/>
</filter>
<filter id="filter1_d_548_7247" x="9.85833" y="6.93148" width="62.1369" height="74.1115" filterUnits="userSpaceOnUse" color-interpolation-filters="sRGB">
<feFlood flood-opacity="0" result="BackgroundImageFix"/>
<feColorMatrix in="SourceAlpha" type="matrix" values="0 0 0 0 0 0 0 0 0 0 0 0 0 0 0 0 0 0 127 0" result="hardAlpha"/>
<feOffset dy="5.35318"/>
<feGaussianBlur stdDeviation="5.35318"/>
<feColorMatrix type="matrix" values="0 0 0 0 0.397708 0 0 0 0 0.47749 0 0 0 0 0.575 0 0 0 0.27 0"/>
<feBlend mode="normal" in2="BackgroundImageFix" result="effect1_dropShadow_548_7247"/>
<feBlend mode="normal" in="SourceGraphic" in2="effect1_dropShadow_548_7247" result="shape"/>
</filter>
</defs>
</svg>
