<svg width="14" height="17" viewBox="0 0 14 17" fill="none" xmlns="http://www.w3.org/2000/svg">
    <path
        d="M8.6665 1V4.33333C8.6665 4.55435 8.7543 4.76631 8.91058 4.92259C9.06686 5.07887 9.27882 5.16667 9.49984 5.16667H12.8332M8.6665 1H2.83317C2.39114 1 1.96722 1.17559 1.65466 1.48816C1.3421 1.80072 1.1665 2.22464 1.1665 2.66667V14.3333C1.1665 14.7754 1.3421 15.1993 1.65466 15.5118C1.96722 15.8244 2.39114 16 2.83317 16H11.1665C11.6085 16 12.0325 15.8244 12.345 15.5118C12.6576 15.1993 12.8332 14.7754 12.8332 14.3333V5.16667M8.6665 1L12.8332 5.16667M4.49984 12.6667H9.49984M4.49984 9.33333H9.49984"
        stroke="black" stroke-width="1.5" stroke-linecap="round" stroke-linejoin="round" />
</svg>